<svg xmlns="http://www.w3.org/2000/svg" width="37" height="37" viewBox="0 0 37 37" fill="none">
  <path d="M5.23976 35.2379V29.6132M30.5507 35.2379V29.6132M4.30232 16.4891V16.4891C2.74911 16.4891 1.48999 17.7457 1.48999 19.2989C1.48999 20.0353 1.48999 20.9586 1.48999 22.1137C1.48999 23.0275 1.55536 23.8615 1.66169 24.6137C1.89308 26.2505 2.00877 27.0689 3.47342 28.3411C4.93808 29.6132 6.18738 29.6132 8.68599 29.6132H26.4517C30.0477 29.6132 31.8457 29.6132 33.3308 28.2638C34.8158 26.9143 34.9419 25.5996 35.1941 22.9702C35.2224 22.6756 35.2379 22.3886 35.2379 22.1137C35.2379 21.1022 35.2379 20.137 35.2379 19.3007C35.2379 17.7475 33.9788 16.4891 32.4256 16.4891V16.4891M4.30232 16.4891L6.08571 9.35547C7.03008 5.57799 7.50227 3.68925 8.91065 2.58962C10.319 1.48998 12.2659 1.48998 16.1596 1.48998H20.5682C24.462 1.48998 26.4089 1.48998 27.8172 2.58962C29.2256 3.68925 29.6978 5.57799 30.6422 9.35547L32.4256 16.4891M4.30232 16.4891H32.4256" stroke="#F4F4F4" stroke-width="2.59599" stroke-linecap="round" stroke-linejoin="round"/>
  <path d="M10.5759 22.2579C10.5759 23.3332 9.70424 24.2049 8.62894 24.2049C7.55365 24.2049 6.68195 23.3332 6.68195 22.2579C6.68195 21.1826 7.55365 20.3109 8.62894 20.3109C9.70424 20.3109 10.5759 21.1826 10.5759 22.2579Z" fill="#F4F4F4"/>
  <path d="M30.0459 22.2579C30.0459 23.3332 29.1742 24.2049 28.0989 24.2049C27.0236 24.2049 26.1519 23.3332 26.1519 22.2579C26.1519 21.1826 27.0236 20.3109 28.0989 20.3109C29.1742 20.3109 30.0459 21.1826 30.0459 22.2579Z" fill="#F4F4F4"/>
</svg>