<svg xmlns="http://www.w3.org/2000/svg" width="30" height="30" viewBox="0 0 30 30" fill="none">
  <path d="M20.7227 23.8578L19.7329 24L20.7227 23.8578ZM20.3456 24.7903L19.7329 24L20.3456 24.7903ZM19.2986 7.81125L18.6034 7.09245L19.2986 7.81125ZM20.7227 6.14216L21.7126 6.28432L20.7227 6.14216ZM20.3456 5.20966L20.9582 4.41932L20.3456 5.20966ZM17.25 15C17.25 12.4602 18.3007 10.1676 19.9938 8.53006L18.6034 7.09245C16.5368 9.09121 15.25 11.8962 15.25 15H17.25ZM19.9938 21.4699C18.3007 19.8324 17.25 17.5398 17.25 15H15.25C15.25 18.1038 16.5368 20.9088 18.6034 22.9075L19.9938 21.4699ZM18.75 24C13.7794 24 9.75 19.9706 9.75 15H7.75C7.75 21.0751 12.6749 26 18.75 26V24ZM9.75 15C9.75 10.0294 13.7794 6 18.75 6V4C12.6749 4 7.75 8.92487 7.75 15H9.75ZM18.6034 22.9075C19.074 23.3627 19.3851 23.6646 19.5897 23.8942C19.6898 24.0064 19.7384 24.0731 19.7597 24.1073C19.7818 24.1429 19.7474 24.1008 19.7329 24L21.7126 23.7157C21.6412 23.2185 21.314 22.8229 21.0829 22.5635C20.8168 22.265 20.4402 21.9017 19.9938 21.4699L18.6034 22.9075ZM18.75 26C19.1699 26 19.5621 26.0013 19.88 25.9685C20.204 25.9352 20.6042 25.8551 20.9582 25.5807L19.7329 24C19.8165 23.9352 19.8606 23.96 19.6753 23.979C19.4839 23.9987 19.2135 24 18.75 24V26ZM19.7329 24V24L20.9582 25.5807C21.5267 25.14 21.8148 24.4277 21.7126 23.7157L19.7329 24ZM19.9938 8.53006C20.4402 8.0983 20.8168 7.73502 21.0829 7.43646C21.314 7.17711 21.6412 6.78151 21.7126 6.28432L19.7329 6C19.7474 5.8992 19.7818 5.85714 19.7597 5.8927C19.7384 5.92686 19.6898 5.99358 19.5897 6.10583C19.3851 6.3354 19.074 6.6373 18.6034 7.09245L19.9938 8.53006ZM18.75 6C19.2135 6 19.4839 6.00126 19.6753 6.02095C19.8606 6.04002 19.8165 6.06479 19.7329 6L20.9582 4.41932C20.6042 4.14487 20.204 4.06481 19.88 4.03146C19.5621 3.99874 19.1699 4 18.75 4V6ZM21.7126 6.28432C21.8148 5.57231 21.5267 4.86002 20.9582 4.41932L19.7329 6L19.7329 6L21.7126 6.28432Z" fill="#33363F"/>
</svg>