<svg xmlns="http://www.w3.org/2000/svg" width="80" height="80" viewBox="0 0 80 80" fill="none">
  <path d="M33.8126 22.0919C36.4346 15.5553 37.7456 12.2869 40 12.2869C42.2544 12.2869 43.5654 15.5553 46.1874 22.0919L46.3095 22.3963C47.7909 26.0892 48.5315 27.9356 50.041 29.0579C51.5505 30.1802 53.532 30.3577 57.4951 30.7126L58.2115 30.7768C64.6976 31.3577 67.9406 31.6481 68.6345 33.7114C69.3285 35.7747 66.9201 37.9658 62.1033 42.3481L60.4956 43.8107C58.0573 46.0291 56.8381 47.1383 56.2699 48.592C56.1639 48.8632 56.0757 49.141 56.0061 49.4237C55.6326 50.9393 55.9896 52.5484 56.7036 55.7666L56.9259 56.7684C58.2381 62.6828 58.8942 65.64 57.7486 66.9156C57.3205 67.3922 56.7642 67.7354 56.1461 67.904C54.4921 68.3554 52.1439 66.4419 47.4474 62.6149C44.3634 60.102 42.8215 58.8455 41.0512 58.5628C40.3548 58.4516 39.6452 58.4516 38.9489 58.5628C37.1785 58.8455 35.6366 60.102 32.5527 62.6149C27.8561 66.4419 25.5079 68.3554 23.8539 67.904C23.2358 67.7354 22.6795 67.3922 22.2514 66.9156C21.1058 65.64 21.7619 62.6828 23.0742 56.7683L23.2964 55.7666C24.0104 52.5484 24.3675 50.9393 23.9939 49.4237C23.9243 49.141 23.8361 48.8632 23.7301 48.592C23.1619 47.1383 21.9427 46.0291 19.5044 43.8107L17.8968 42.3481C13.0799 37.9658 10.6715 35.7747 11.3655 33.7114C12.0594 31.6481 15.3024 31.3577 21.7885 30.7768L22.5049 30.7126C26.468 30.3577 28.4495 30.1802 29.959 29.0579C31.4685 27.9356 32.2092 26.0892 33.6905 22.3963L33.8126 22.0919Z" stroke="black" stroke-width="2"/>
</svg>