<svg xmlns="http://www.w3.org/2000/svg" width="47" height="47" viewBox="0 0 47 47" fill="none">
  <path d="M23.5 9.79166L23.5 5.875" stroke="white" stroke-width="2" stroke-linecap="round"/>
  <path d="M19.5833 31.3333L18.6041 25.4583" stroke="white" stroke-width="2" stroke-linecap="round"/>
  <path d="M27.4165 31.3333L28.3957 25.4583" stroke="white" stroke-width="2" stroke-linecap="round"/>
  <path d="M3.91669 17.625H43.0834H40.5467C38.9506 17.625 38.1526 17.625 37.596 18.0895C37.0394 18.554 36.8967 19.3391 36.6112 20.9095L33.8889 35.8822C33.6033 37.4525 33.4606 38.2377 32.904 38.7022C32.3475 39.1667 31.5494 39.1667 29.9534 39.1667H17.0467C15.4506 39.1667 14.6526 39.1667 14.096 38.7022C13.5394 38.2377 13.3967 37.4525 13.1112 35.8822L10.3889 20.9095C10.1033 19.3391 9.96059 18.554 9.40403 18.0895C8.84746 17.625 8.04944 17.625 6.45338 17.625H3.91669Z" stroke="white" stroke-width="2" stroke-linecap="round"/>
</svg>