<svg xmlns="http://www.w3.org/2000/svg" width="70" height="70" viewBox="0 0 70 70" fill="none">
  <g opacity="0.7">
    <path d="M14.5833 37.2155C14.5833 33.2554 14.5833 31.2753 15.3838 29.5349C16.1844 27.7944 17.6877 26.5058 20.6945 23.9285L23.6111 21.4285C29.0458 16.7702 31.7632 14.4411 35 14.4411C38.2368 14.4411 40.9542 16.7702 46.3888 21.4285L49.3055 23.9285C52.3123 26.5058 53.8156 27.7944 54.6161 29.5349C55.4167 31.2753 55.4167 33.2554 55.4167 37.2155V49.5833C55.4167 55.0831 55.4167 57.8329 53.7081 59.5415C51.9996 61.25 49.2497 61.25 43.75 61.25H26.25C20.7503 61.25 18.0004 61.25 16.2919 59.5415C14.5833 57.8329 14.5833 55.0831 14.5833 49.5833V37.2155Z" stroke="black" stroke-width="2"/>
    <path d="M42.2917 61.25V44.75C42.2917 44.1977 41.8439 43.75 41.2917 43.75H28.7083C28.156 43.75 27.7083 44.1977 27.7083 44.75V61.25" stroke="black" stroke-width="2" stroke-linecap="round" stroke-linejoin="round"/>
  </g>
</svg>