<svg xmlns="http://www.w3.org/2000/svg" width="55" height="48" viewBox="0 0 55 48" fill="none">
  <path fill-rule="evenodd" clip-rule="evenodd" d="M21.0345 6H14.3577C12.9588 6 12.2594 6 11.7343 6.38066C11.2091 6.76132 10.9915 7.42604 10.5562 8.75547L7.85253 17.0141C7.90725 17.0048 7.96348 17 8.02084 17H18.6712L21.0345 6ZM7.30213 18.6953L7.2436 18.8741C7.06391 19.423 6.97407 19.6974 7.03342 19.9648C7.09277 20.2323 7.29026 20.4429 7.68525 20.8643L7.68525 20.8643L23.3559 37.5796L18.6989 19H8.02084C7.73875 19 7.48394 18.8832 7.30213 18.6953ZM28.8299 40.5814C28.2303 41.219 27.9051 41.5379 27.5 41.5379C27.095 41.5379 26.7697 41.219 26.1701 40.5814L20.7608 19H34.2393L28.8299 40.5814ZM31.6441 37.5796L47.3148 20.8643C47.7097 20.4429 47.9072 20.2323 47.9666 19.9648C48.0259 19.6974 47.9361 19.423 47.7564 18.8741L47.6979 18.6953C47.5161 18.8832 47.2613 19 46.9792 19H36.3011L31.6441 37.5796ZM47.1475 17.0141L44.4438 8.75547C44.0085 7.42604 43.7909 6.76132 43.2658 6.38066C42.7406 6 42.0412 6 40.6423 6H33.9655L36.3288 17H46.9792C47.0365 17 47.0928 17.0048 47.1475 17.0141ZM31.9199 6H23.0801L20.7168 17H34.2832L31.9199 6Z" fill="#9B51E0"/>
</svg>