<svg xmlns="http://www.w3.org/2000/svg" width="65" height="65" viewBox="0 0 65 65" fill="none">
  <path d="M5.41675 32.5L4.63588 31.8753L4.13612 32.5L4.63588 33.1247L5.41675 32.5ZM29.7917 33.5C30.344 33.5 30.7917 33.0523 30.7917 32.5C30.7917 31.9477 30.344 31.5 29.7917 31.5V33.5ZM15.4692 18.3336L4.63588 31.8753L6.19762 33.1247L17.0309 19.583L15.4692 18.3336ZM4.63588 33.1247L15.4692 46.6664L17.0309 45.417L6.19762 31.8753L4.63588 33.1247ZM5.41675 33.5H29.7917V31.5H5.41675V33.5Z" fill="black"/>
  <path d="M27.0833 22.024V14.2218C27.0833 12.6035 27.0833 11.7943 27.5572 11.2348C28.0312 10.6753 28.8293 10.5423 30.4257 10.2763L52.5969 6.58106C55.84 6.04054 57.4615 5.77028 58.5224 6.66898C59.5833 7.56767 59.5833 9.21159 59.5833 12.4994V52.5006C59.5833 55.7884 59.5833 57.4323 58.5224 58.331C57.4615 59.2297 55.84 58.9594 52.5969 58.4189L30.4257 54.7237C28.8293 54.4577 28.0312 54.3246 27.5572 53.7652C27.0833 53.2057 27.0833 52.3965 27.0833 50.7781V43.512" stroke="black" stroke-width="2"/>
</svg>