<svg xmlns="http://www.w3.org/2000/svg" width="70" height="70" viewBox="0 0 70 70" fill="none">
  <path d="M41.0134 7.63431L42.0085 7.5348L42.0085 7.5348L41.0134 7.63431ZM40.5993 6.09186L39.9283 6.83331L39.9283 6.83331L40.5993 6.09186ZM41.6774 14.2738L42.6724 14.1743L42.6724 14.1743L41.6774 14.2738ZM44.9339 15.6227L44.3007 14.8488L44.3007 14.8488L44.9339 15.6227ZM50.0982 11.3974L49.465 10.6234L49.465 10.6234L50.0982 11.3974ZM51.4817 10.5995L51.4319 11.5983L51.4319 11.5983L51.4817 10.5995ZM52.7789 11.5311L52.0718 12.2382L52.0718 12.2382L52.7789 11.5311ZM58.4688 17.221L59.1759 16.5139L59.1759 16.5139L58.4688 17.221ZM59.4003 18.5182L60.3991 18.4684L60.3991 18.4684L59.4003 18.5182ZM58.6025 19.9017L59.3764 20.5349L58.6025 19.9017ZM54.3771 25.066L53.6031 24.4328L53.6031 24.4328L54.3771 25.066ZM53.0467 27.5247L52.1228 27.9074L52.1228 27.9074L53.0467 27.5247ZM55.726 28.3226L55.6265 29.3176L55.6265 29.3176L55.726 28.3226ZM62.3657 28.9865L62.4652 27.9915L62.4652 27.9915L62.3657 28.9865ZM63.9081 29.4006L63.1667 30.0716L63.1667 30.0716L63.9081 29.4006ZM63.9081 40.5993L63.1667 39.9283L63.1667 39.9283L63.9081 40.5993ZM62.3657 41.0134L62.4652 42.0084L62.4652 42.0084L62.3657 41.0134ZM55.7271 41.6773L55.8266 42.6723L55.8266 42.6723L55.7271 41.6773ZM53.0478 42.4751L52.1239 42.0924L52.1239 42.0924L53.0478 42.4751ZM54.3782 44.9338L55.1522 44.3006L55.1522 44.3006L54.3782 44.9338ZM58.6026 50.097L59.3766 49.4638L59.3766 49.4638L58.6026 50.097ZM59.4005 51.4805L60.3992 51.5303L60.3992 51.5303L59.4005 51.4805ZM51.4818 59.3991L51.5316 60.3979L51.5316 60.3979L51.4818 59.3991ZM50.0983 58.6013L49.4651 59.3752L49.4651 59.3752L50.0983 58.6013ZM44.9341 54.376L45.5673 53.602L45.5673 53.602L44.9341 54.376ZM42.4753 53.0456L42.0927 52.1217L42.0927 52.1217L42.4753 53.0456ZM41.6775 55.7249L42.6725 55.8244L42.6725 55.8244L41.6775 55.7249ZM41.0134 62.3657L42.0085 62.4652L42.0085 62.4652L41.0134 62.3657ZM40.5993 63.9081L39.9283 63.1666L39.9283 63.1666L40.5993 63.9081ZM29.4006 63.9081L30.0716 63.1666L30.0716 63.1666L29.4006 63.9081ZM28.9866 62.3657L27.9915 62.4652L27.9915 62.4652L28.9866 62.3657ZM28.3226 55.726L29.3176 55.6265L29.3176 55.6265L28.3226 55.726ZM25.066 54.3771L25.6993 55.1511L25.6993 55.1511L25.066 54.3771ZM19.9016 58.6026L20.5348 59.3765L20.5348 59.3765L19.9016 58.6026ZM18.5181 59.4005L18.4683 60.3992L18.4683 60.3992L18.5181 59.4005ZM17.2209 58.4689L17.928 57.7618L17.928 57.7618L17.2209 58.4689ZM11.531 52.779L12.2381 52.0719L12.2381 52.0719L11.531 52.779ZM10.5994 51.4818L11.5982 51.432L11.5982 51.432L10.5994 51.4818ZM11.3973 50.0983L10.6233 49.4651L10.6233 49.4651L11.3973 50.0983ZM15.6227 44.9339L14.8487 44.3007L14.8487 44.3007L15.6227 44.9339ZM16.9531 42.4752L16.0292 42.8579L16.0292 42.8579L16.9531 42.4752ZM14.2738 41.6774L14.1743 42.6724L14.1743 42.6724L14.2738 41.6774ZM7.63432 41.0134L7.53481 42.0084L7.53481 42.0084L7.63432 41.0134ZM6.09188 40.5993L5.35042 41.2703L5.35042 41.2703L6.09188 40.5993ZM5.83333 39.0233L6.83333 39.0233L5.83333 39.0233ZM5.83333 30.9766L4.83333 30.9766L5.83333 30.9766ZM6.09188 29.4006L6.83333 30.0716L6.83333 30.0716L6.09188 29.4006ZM7.6343 28.9865V27.9865H7.58443L7.5348 27.9915L7.6343 28.9865ZM7.63432 28.9865V29.9865H7.6842L7.73382 29.9816L7.63432 28.9865ZM14.2749 28.3225L14.3744 29.3175L14.3744 29.3175L14.2749 28.3225ZM16.9542 27.5246L16.0303 27.142L16.0303 27.142L16.9542 27.5246ZM15.6238 25.0659L16.3978 24.4327L16.3978 24.4327L15.6238 25.0659ZM11.3974 19.9004L10.6235 20.5336L10.6235 20.5336L11.3974 19.9004ZM10.5995 18.5169L9.60079 18.4671L9.60079 18.4671L10.5995 18.5169ZM11.5311 17.2197L12.2382 17.9268L12.2382 17.9268L11.5311 17.2197ZM17.221 11.5298L17.9281 12.2369L17.9281 12.2369L17.221 11.5298ZM18.5182 10.5982L18.4684 9.59945L18.4684 9.59945L18.5182 10.5982ZM19.9017 11.3961L20.5349 10.6221L20.5349 10.6221L19.9017 11.3961ZM25.0662 15.6216L25.6994 14.8476L25.6994 14.8476L25.0662 15.6216ZM27.5249 16.9519L27.1422 16.0281L27.1422 16.0281L27.5249 16.9519ZM28.3227 14.2727L29.3178 14.3722L29.3178 14.3722L28.3227 14.2727ZM28.9866 7.6343L29.9816 7.73381L29.9866 7.68418V7.6343H28.9866ZM28.9866 7.63429L27.9915 7.53478L27.9866 7.58441V7.63429H28.9866ZM29.4006 6.09186L30.0716 6.83331L30.0716 6.83331L29.4006 6.09186ZM42.0085 7.5348C41.9683 7.13344 41.9306 6.73681 41.8556 6.41319C41.7741 6.06175 41.6228 5.66937 41.2704 5.35041L39.9283 6.83331C39.8616 6.7729 39.8745 6.72377 39.9073 6.86494C39.9464 7.03392 39.9729 7.27924 40.0184 7.73381L42.0085 7.5348ZM42.6724 14.1743L42.0085 7.5348L40.0184 7.73381L40.6823 14.3733L42.6724 14.1743ZM42.8579 16.0292C43.0318 16.1012 42.9872 16.2429 42.9 15.8962C42.8125 15.5481 42.7575 15.0249 42.6724 14.1743L40.6823 14.3733C40.7606 15.1563 40.8282 15.8582 40.9605 16.3841C41.0931 16.9115 41.3658 17.576 42.0925 17.877L42.8579 16.0292ZM44.3007 14.8488C43.6391 15.3901 43.2302 15.7211 42.9222 15.9054C42.6154 16.0888 42.684 15.9572 42.8579 16.0292L42.0925 17.877C42.8192 18.178 43.4819 17.9009 43.9486 17.6219C44.4141 17.3435 44.9582 16.8949 45.5672 16.3967L44.3007 14.8488ZM49.465 10.6234L44.3007 14.8488L45.5672 16.3967L50.7314 12.1714L49.465 10.6234ZM51.5315 9.60077C51.0567 9.57709 50.6723 9.74757 50.3662 9.93845C50.0843 10.1142 49.7771 10.368 49.465 10.6234L50.7314 12.1714C51.085 11.8821 51.2772 11.7273 51.4244 11.6356C51.5474 11.5589 51.5218 11.6028 51.4319 11.5983L51.5315 9.60077ZM53.486 10.824C53.2008 10.5388 52.9204 10.2557 52.6574 10.0527C52.3718 9.83233 52.0062 9.62445 51.5315 9.60077L51.4319 11.5983C51.3419 11.5938 51.3208 11.5476 51.4356 11.6361C51.5729 11.7421 51.7487 11.9152 52.0718 12.2382L53.486 10.824ZM59.1759 16.5139L53.486 10.824L52.0718 12.2382L57.7617 17.9281L59.1759 16.5139ZM60.3991 18.4684C60.3754 17.9936 60.1675 17.6281 59.9471 17.3425C59.7442 17.0795 59.4611 16.7991 59.1759 16.5139L57.7617 17.9281C58.0847 18.2511 58.2578 18.427 58.3638 18.5643C58.4523 18.679 58.4061 18.6579 58.4016 18.568L60.3991 18.4684ZM59.3764 20.5349C59.6319 20.2227 59.8856 19.9156 60.0614 19.6337C60.2523 19.3276 60.4228 18.9432 60.3991 18.4684L58.4016 18.568C58.3971 18.4781 58.441 18.4525 58.3643 18.5755C58.2725 18.7227 58.1178 18.9149 57.8285 19.2684L59.3764 20.5349ZM55.151 25.6993L59.3764 20.5349L57.8285 19.2684L53.6031 24.4328L55.151 25.6993ZM53.9706 27.1421C54.0426 27.3159 53.911 27.3846 54.0944 27.0778C54.2787 26.7697 54.6097 26.3609 55.151 25.6993L53.6031 24.4328C53.1049 25.0418 52.6563 25.5859 52.3779 26.0513C52.0989 26.518 51.8218 27.1807 52.1228 27.9074L53.9706 27.1421ZM55.8255 27.3275C54.9749 27.2425 54.4517 27.1875 54.1036 27.0999C53.757 27.0127 53.8986 26.9682 53.9706 27.142L52.1228 27.9074C52.4238 28.6341 53.0883 28.9068 53.6157 29.0395C54.1416 29.1718 54.8435 29.2393 55.6265 29.3176L55.8255 27.3275ZM62.4652 27.9915L55.8255 27.3275L55.6265 29.3176L62.2662 29.9816L62.4652 27.9915ZM64.6496 28.7296C64.3306 28.3772 63.9382 28.2259 63.5868 28.1444C63.2632 28.0694 62.8665 28.0316 62.4652 27.9915L62.2662 29.9816C62.7207 30.027 62.9661 30.0535 63.135 30.0927C63.2762 30.1254 63.2271 30.1384 63.1667 30.0716L64.6496 28.7296ZM65.1667 30.9766C65.1667 30.5733 65.1686 30.1748 65.1261 29.8454C65.08 29.4876 64.9685 29.0821 64.6496 28.7296L63.1667 30.0716C63.1062 30.0049 63.124 29.9573 63.1425 30.101C63.1647 30.273 63.1667 30.5198 63.1667 30.9766H65.1667ZM65.1667 39.0233V30.9766H63.1667V39.0233H65.1667ZM64.6496 41.2703C64.9685 40.9179 65.08 40.5124 65.1261 40.1546C65.1686 39.8251 65.1667 39.4267 65.1667 39.0233H63.1667C63.1667 39.4802 63.1647 39.7269 63.1425 39.8989C63.124 40.0427 63.1062 39.9951 63.1667 39.9283L64.6496 41.2703ZM62.4652 42.0084C62.8665 41.9683 63.2632 41.9306 63.5868 41.8556C63.9382 41.7741 64.3306 41.6228 64.6496 41.2703L63.1667 39.9283C63.2271 39.8616 63.2762 39.8745 63.135 39.9073C62.9661 39.9464 62.7207 39.9729 62.2662 40.0184L62.4652 42.0084ZM55.8266 42.6723L62.4652 42.0084L62.2662 40.0184L55.6276 40.6822L55.8266 42.6723ZM53.9717 42.8578C53.8997 43.0317 53.7581 42.9871 54.1047 42.8999C54.4528 42.8124 54.976 42.7574 55.8266 42.6723L55.6276 40.6822C54.8446 40.7605 54.1427 40.828 53.6168 40.9604C53.0894 41.093 52.4249 41.3657 52.1239 42.0924L53.9717 42.8578ZM55.1522 44.3006C54.6109 43.639 54.2798 43.2301 54.0955 42.9221C53.9121 42.6153 54.0437 42.6839 53.9717 42.8578L52.1239 42.0924C51.8229 42.8191 52.1 43.4818 52.379 43.9485C52.6574 44.414 53.106 44.9581 53.6042 45.5671L55.1522 44.3006ZM59.3766 49.4638L55.1522 44.3006L53.6042 45.5671L57.8287 50.7302L59.3766 49.4638ZM60.3992 51.5303C60.4229 51.0555 60.2524 50.6711 60.0616 50.365C59.8858 50.0831 59.632 49.7759 59.3766 49.4638L57.8287 50.7302C58.1179 51.0838 58.2727 51.276 58.3645 51.4232C58.4411 51.5462 58.3972 51.5206 58.4017 51.4307L60.3992 51.5303ZM59.176 53.4848C59.4612 53.1996 59.7443 52.9192 59.9473 52.6562C60.1677 52.3706 60.3756 52.005 60.3992 51.5303L58.4017 51.4306C58.4062 51.3407 58.4524 51.3196 58.3639 51.4344C58.2579 51.5717 58.0848 51.7475 57.7618 52.0706L59.176 53.4848ZM53.4861 59.1747L59.176 53.4848L57.7618 52.0706L52.0719 57.7605L53.4861 59.1747ZM51.5316 60.3979C52.0064 60.3742 52.3719 60.1663 52.6576 59.9459C52.9206 59.743 53.2009 59.4599 53.4861 59.1747L52.0719 57.7605C51.7489 58.0835 51.573 58.2566 51.4357 58.3626C51.321 58.4511 51.3421 58.4049 51.432 58.4004L51.5316 60.3979ZM49.4651 59.3752C49.7773 59.6307 50.0844 59.8844 50.3663 60.0602C50.6724 60.2511 51.0569 60.4216 51.5316 60.3979L51.432 58.4004C51.5219 58.3959 51.5475 58.4398 51.4245 58.3631C51.2773 58.2713 51.0851 58.1166 50.7316 57.8273L49.4651 59.3752ZM44.3008 55.1499L49.4651 59.3752L50.7316 57.8273L45.5673 53.602L44.3008 55.1499ZM42.858 53.9695C42.6841 54.0415 42.6155 53.9098 42.9223 54.0933C43.2304 54.2775 43.6392 54.6086 44.3008 55.1499L45.5673 53.602C44.9583 53.1037 44.4142 52.6551 43.9488 52.3768C43.4821 52.0977 42.8194 51.8207 42.0927 52.1217L42.858 53.9695ZM42.6725 55.8244C42.7576 54.9738 42.8126 54.4506 42.9002 54.1025C42.9874 53.7558 43.0319 53.8974 42.858 53.9695L42.0927 52.1217C41.366 52.4227 41.0933 53.0872 40.9606 53.6145C40.8283 54.1405 40.7608 54.8424 40.6825 55.6254L42.6725 55.8244ZM42.0085 62.4652L42.6725 55.8244L40.6825 55.6254L40.0184 62.2661L42.0085 62.4652ZM41.2703 64.6495C41.6228 64.3306 41.7741 63.9382 41.8556 63.5868C41.9306 63.2631 41.9683 62.8665 42.0085 62.4652L40.0184 62.2661C39.9729 62.7207 39.9464 62.966 39.9073 63.135C39.8745 63.2762 39.8616 63.2271 39.9283 63.1666L41.2703 64.6495ZM39.0234 65.1666C39.4267 65.1666 39.8251 65.1686 40.1546 65.1261C40.5124 65.08 40.9179 64.9685 41.2704 64.6495L39.9283 63.1666C39.9951 63.1062 40.0427 63.124 39.899 63.1425C39.7269 63.1647 39.4802 63.1666 39.0234 63.1666V65.1666ZM30.9766 65.1666H39.0234V63.1666H30.9766V65.1666ZM28.7296 64.6495C29.0821 64.9685 29.4876 65.08 29.8454 65.1261C30.1749 65.1686 30.5733 65.1666 30.9766 65.1666V63.1666C30.5198 63.1666 30.2731 63.1647 30.101 63.1425C29.9573 63.124 30.0049 63.1062 30.0716 63.1666L28.7296 64.6495ZM27.9915 62.4652C28.0317 62.8665 28.0694 63.2631 28.1444 63.5868C28.2259 63.9382 28.3772 64.3306 28.7296 64.6496L30.0716 63.1666C30.1384 63.2271 30.1255 63.2762 30.0927 63.135C30.0535 62.966 30.0271 62.7207 29.9816 62.2661L27.9915 62.4652ZM27.3276 55.8255L27.9915 62.4652L29.9816 62.2661L29.3176 55.6265L27.3276 55.8255ZM27.1421 53.9706C26.9682 53.8986 27.0127 53.757 27.0999 54.1036C27.1875 54.4517 27.2425 54.9749 27.3276 55.8255L29.3176 55.6265C29.2393 54.8435 29.1718 54.1416 29.0395 53.6157C28.9068 53.0883 28.6341 52.4238 27.9074 52.1228L27.1421 53.9706ZM25.6993 55.1511C26.3609 54.6098 26.7697 54.2787 27.0778 54.0945C27.3846 53.911 27.316 54.0426 27.1421 53.9706L27.9074 52.1228C27.1807 51.8218 26.518 52.0989 26.0513 52.3779C25.5859 52.6563 25.0418 53.1049 24.4328 53.6031L25.6993 55.1511ZM20.5348 59.3765L25.6993 55.1511L24.4328 53.6031L19.2683 57.8286L20.5348 59.3765ZM18.4683 60.3992C18.943 60.4229 19.3275 60.2524 19.6336 60.0615C19.9155 59.8858 20.2226 59.632 20.5348 59.3765L19.2683 57.8286C18.9148 58.1179 18.7226 58.2727 18.5754 58.3644C18.4524 58.4411 18.478 58.3972 18.5679 58.4017L18.4683 60.3992ZM16.5138 59.176C16.799 59.4612 17.0793 59.7443 17.3423 59.9473C17.6279 60.1677 17.9935 60.3755 18.4683 60.3992L18.5679 58.4017C18.6578 58.4062 18.6789 58.4524 18.5642 58.3639C18.4269 58.2579 18.251 58.0848 17.928 57.7618L16.5138 59.176ZM10.8239 53.4861L16.5138 59.176L17.928 57.7618L12.2381 52.0719L10.8239 53.4861ZM9.60065 51.5316C9.62433 52.0064 9.83221 52.3719 10.0526 52.6575C10.2556 52.9205 10.5387 53.2009 10.8239 53.4861L12.2381 52.0719C11.9151 51.7489 11.742 51.573 11.636 51.4357C11.5475 51.321 11.5937 51.3421 11.5982 51.432L9.60065 51.5316ZM10.6233 49.4651C10.3679 49.7773 10.1141 50.0844 9.93833 50.3663C9.74745 50.6724 9.57697 51.0568 9.60065 51.5316L11.5982 51.432C11.6027 51.5219 11.5588 51.5475 11.6354 51.4245C11.7272 51.2773 11.882 51.0851 12.1712 50.7315L10.6233 49.4651ZM14.8487 44.3007L10.6233 49.4651L12.1712 50.7315L16.3967 45.5671L14.8487 44.3007ZM16.0292 42.8579C15.9572 42.684 16.0888 42.6154 15.9053 42.9222C15.7211 43.2302 15.39 43.6391 14.8487 44.3007L16.3967 45.5671C16.8949 44.9581 17.3435 44.4141 17.6219 43.9486C17.9009 43.4819 18.178 42.8192 17.877 42.0925L16.0292 42.8579ZM14.1743 42.6724C15.0249 42.7575 15.5481 42.8124 15.8962 42.9C16.2428 42.9872 16.1012 43.0318 16.0292 42.8579L17.877 42.0925C17.576 41.3658 16.9115 41.0931 16.3841 40.9605C15.8582 40.8281 15.1563 40.7606 14.3733 40.6823L14.1743 42.6724ZM7.53481 42.0084L14.1743 42.6724L14.3733 40.6823L7.73382 40.0184L7.53481 42.0084ZM5.35042 41.2703C5.66939 41.6228 6.06177 41.7741 6.4132 41.8556C6.73682 41.9306 7.13345 41.9683 7.53481 42.0084L7.73382 40.0184C7.27926 39.9729 7.03394 39.9464 6.86496 39.9073C6.72379 39.8745 6.77291 39.8616 6.83333 39.9283L5.35042 41.2703ZM4.83333 39.0233C4.83333 39.4267 4.83139 39.8251 4.87385 40.1546C4.91996 40.5124 5.03146 40.9179 5.35042 41.2703L6.83333 39.9283C6.89374 39.9951 6.87597 40.0427 6.85744 39.899C6.83527 39.7269 6.83333 39.4802 6.83333 39.0233L4.83333 39.0233ZM4.83333 30.9766L4.83333 39.0233L6.83333 39.0233L6.83333 30.9766L4.83333 30.9766ZM5.35042 28.7296C5.03146 29.0821 4.91996 29.4876 4.87385 29.8454C4.83139 30.1748 4.83333 30.5733 4.83333 30.9766L6.83333 30.9766C6.83333 30.5198 6.83527 30.273 6.85744 30.101C6.87597 29.9573 6.89374 30.0049 6.83333 30.0716L5.35042 28.7296ZM7.5348 27.9915C7.13344 28.0316 6.73681 28.0694 6.41319 28.1444C6.06176 28.2259 5.66938 28.3772 5.35042 28.7296L6.83333 30.0716C6.77292 30.1384 6.72379 30.1254 6.86495 30.0927C7.03393 30.0535 7.27925 30.027 7.73381 29.9816L7.5348 27.9915ZM7.63432 27.9865H7.6343V29.9865H7.63432V27.9865ZM14.1754 27.3275L7.53482 27.9915L7.73382 29.9816L14.3744 29.3175L14.1754 27.3275ZM16.0303 27.142C16.1023 26.9681 16.2439 27.0126 15.8973 27.0998C15.5492 27.1874 15.026 27.2424 14.1754 27.3275L14.3744 29.3175C15.1574 29.2392 15.8593 29.1717 16.3852 29.0394C16.9126 28.9067 17.5771 28.634 17.8781 27.9073L16.0303 27.142ZM14.8498 25.6992C15.3911 26.3608 15.7222 26.7696 15.9064 27.0777C16.0899 27.3845 15.9583 27.3158 16.0303 27.142L17.8781 27.9073C18.1791 27.1806 17.902 26.5179 17.623 26.0512C17.3446 25.5858 16.896 25.0417 16.3978 24.4327L14.8498 25.6992ZM10.6235 20.5336L14.8498 25.6992L16.3978 24.4327L12.1714 19.2671L10.6235 20.5336ZM9.60079 18.4671C9.57711 18.9418 9.74759 19.3263 9.93847 19.6324C10.1142 19.9143 10.368 20.2214 10.6235 20.5336L12.1714 19.2671C11.8821 18.9135 11.7274 18.7214 11.6356 18.5742C11.5589 18.4512 11.6028 18.4768 11.5983 18.5667L9.60079 18.4671ZM10.824 16.5126C10.5388 16.7978 10.2557 17.0781 10.0527 17.3411C9.83235 17.6267 9.62447 17.9923 9.60079 18.4671L11.5983 18.5667C11.5938 18.6566 11.5476 18.6777 11.6361 18.563C11.7421 18.4257 11.9152 18.2498 12.2382 17.9268L10.824 16.5126ZM16.5139 10.8227L10.824 16.5126L12.2382 17.9268L17.9281 12.2369L16.5139 10.8227ZM18.4684 9.59945C17.9937 9.62313 17.6281 9.83101 17.3425 10.0514C17.0795 10.2544 16.7991 10.5375 16.5139 10.8227L17.9281 12.2369C18.2511 11.9139 18.427 11.7408 18.5643 11.6348C18.679 11.5463 18.658 11.5925 18.568 11.597L18.4684 9.59945ZM20.5349 10.6221C20.2227 10.3667 19.9156 10.1129 19.6337 9.93713C19.3276 9.74625 18.9432 9.57577 18.4684 9.59945L18.568 11.597C18.4781 11.6015 18.4525 11.5576 18.5755 11.6342C18.7227 11.726 18.9149 11.8808 19.2685 12.17L20.5349 10.6221ZM25.6994 14.8476L20.5349 10.6221L19.2685 12.17L24.4329 16.3955L25.6994 14.8476ZM27.1422 16.0281C27.3161 15.956 27.3847 16.0877 27.0779 15.9042C26.7699 15.72 26.361 15.3889 25.6994 14.8476L24.4329 16.3955C25.0419 16.8938 25.586 17.3424 26.0515 17.6207C26.5182 17.8998 27.1809 18.1768 27.9076 17.8758L27.1422 16.0281ZM27.3277 14.1732C27.2426 15.0237 27.1876 15.547 27.1001 15.895C27.0129 16.2417 26.9683 16.1001 27.1422 16.0281L27.9076 17.8758C28.6343 17.5748 28.907 16.9103 29.0396 16.383C29.1719 15.8571 29.2395 15.1551 29.3178 14.3722L27.3277 14.1732ZM27.9915 7.5348L27.3277 14.1732L29.3178 14.3722L29.9816 7.73381L27.9915 7.5348ZM27.9866 7.63429V7.6343H29.9866V7.63429H27.9866ZM28.7296 5.35041C28.3772 5.66937 28.2259 6.06175 28.1444 6.41318C28.0694 6.7368 28.0317 7.13342 27.9915 7.53478L29.9816 7.73379C30.0271 7.27923 30.0535 7.03391 30.0927 6.86494C30.1255 6.72377 30.1384 6.7729 30.0716 6.83331L28.7296 5.35041ZM30.9766 4.83331C30.5733 4.83331 30.1749 4.83137 29.8454 4.87383C29.4876 4.91995 29.0821 5.03145 28.7296 5.35041L30.0716 6.83331C30.0049 6.89373 29.9573 6.87595 30.101 6.85743C30.2731 6.83526 30.5198 6.83331 30.9766 6.83331V4.83331ZM39.0234 4.83331H30.9766V6.83331H39.0234V4.83331ZM41.2704 5.35041C40.9179 5.03145 40.5124 4.91995 40.1546 4.87383C39.8251 4.83137 39.4267 4.83331 39.0234 4.83331V6.83331C39.4802 6.83331 39.7269 6.83526 39.899 6.85743C40.0427 6.87595 39.9951 6.89373 39.9283 6.83331L41.2704 5.35041ZM45.6667 35C45.6667 40.891 40.891 45.6666 35 45.6666V47.6666C41.9956 47.6666 47.6667 41.9956 47.6667 35H45.6667ZM35 24.3333C40.891 24.3333 45.6667 29.1089 45.6667 35H47.6667C47.6667 28.0044 41.9956 22.3333 35 22.3333V24.3333ZM24.3333 35C24.3333 29.1089 29.109 24.3333 35 24.3333V22.3333C28.0044 22.3333 22.3333 28.0044 22.3333 35H24.3333ZM35 45.6666C29.109 45.6666 24.3333 40.891 24.3333 35H22.3333C22.3333 41.9956 28.0044 47.6666 35 47.6666V45.6666Z" fill="black"/>
</svg>