<svg xmlns="http://www.w3.org/2000/svg" width="46" height="46" viewBox="0 0 46 46" fill="none">
  <path d="M27.7916 40.25V29.75C27.7916 29.1977 27.3439 28.75 26.7916 28.75H19.2083C18.656 28.75 18.2083 29.1977 18.2083 29.75V40.25" stroke="white" stroke-width="2" stroke-linecap="round" stroke-linejoin="round"/>
  <path d="M9.58331 21.0833V36.25C9.58331 38.1356 9.58331 39.0784 10.1691 39.6642C10.7549 40.25 11.6977 40.25 13.5833 40.25H32.4166C34.3023 40.25 35.2451 40.25 35.8309 39.6642C36.4166 39.0784 36.4166 38.1356 36.4166 36.25V21.0833" stroke="white" stroke-width="2"/>
  <path d="M9.2046 7.26493C9.38649 6.53737 9.47744 6.17359 9.7487 5.96179C10.02 5.75 10.3949 5.75 11.1449 5.75H34.8551C35.6051 5.75 35.98 5.75 36.2513 5.96179C36.5226 6.17359 36.6135 6.53737 36.7954 7.26493L39.6287 18.5983C39.9147 19.7422 40.0577 20.3142 39.7574 20.6987C39.4572 21.0833 38.8676 21.0833 37.6884 21.0833H35.9718C34.3535 21.0833 33.5443 21.0833 32.9848 20.6094C32.4253 20.1354 32.2923 19.3373 32.0263 17.7409L31.8223 16.517C31.7472 16.0667 31.7097 15.8416 31.625 15.8416C31.5403 15.8416 31.5028 16.0667 31.4277 16.517L31.2181 17.7748C30.9576 19.3379 30.8273 20.1195 30.2868 20.5908C30.2725 20.6033 30.258 20.6156 30.2433 20.6276C29.6896 21.0833 28.8972 21.0833 27.3125 21.0833V21.0833C25.7278 21.0833 24.9354 21.0833 24.3817 20.6276C24.367 20.6156 24.3525 20.6033 24.3382 20.5908C23.7977 20.1195 23.6674 19.3379 23.4069 17.7748L23.1973 16.517C23.1222 16.0667 23.0847 15.8416 23 15.8416C22.9153 15.8416 22.8778 16.0667 22.8027 16.517L22.5931 17.7748C22.3326 19.3379 22.2023 20.1195 21.6618 20.5908C21.6475 20.6033 21.633 20.6156 21.6183 20.6276C21.0646 21.0833 20.2722 21.0833 18.6875 21.0833V21.0833C17.1028 21.0833 16.3104 21.0833 15.7567 20.6276C15.742 20.6156 15.7275 20.6033 15.7132 20.5908C15.1727 20.1195 15.0424 19.3379 14.7819 17.7748L14.5723 16.517C14.4972 16.0667 14.4597 15.8416 14.375 15.8416C14.2903 15.8416 14.2528 16.0667 14.1777 16.517L13.9737 17.7409C13.7077 19.3373 13.5747 20.1354 13.0152 20.6094C12.4557 21.0833 11.6465 21.0833 10.0282 21.0833H8.31155C7.13242 21.0833 6.54285 21.0833 6.24257 20.6987C5.94229 20.3142 6.08529 19.7422 6.37127 18.5983L9.2046 7.26493Z" stroke="white" stroke-width="2"/>
</svg>